<svg width="40" height="40" viewBox="0 0 40 40" fill="none" xmlns="http://www.w3.org/2000/svg">
<circle cx="20" cy="20" r="20" fill="#E5E5E5"/>
<path d="M29.8062 25.1153C29.8062 25.0323 29.7231 25.0323 29.7231 24.9493C29.3911 24.2851 28.6438 23.4549 27.6476 22.5416C27.1494 22.1265 26.9004 21.7944 26.7343 21.6284C26.4852 21.2963 26.4853 21.0472 26.5683 20.7151C26.6513 20.466 26.9834 20.0509 27.5645 19.3037C27.8966 18.8886 28.0627 18.6395 28.3117 18.3905C29.5571 16.73 30.1382 15.6507 29.9722 15.1526L29.8892 15.0695C29.8062 14.9865 29.7231 14.9035 29.5571 14.9035C29.391 14.8205 29.142 14.8205 28.8929 14.9035H25.7381C25.655 14.9035 25.655 14.9035 25.489 14.9035C25.4059 14.9035 25.3229 14.9035 25.3229 14.9035H25.2399H25.1569L25.0739 14.9865C24.9908 15.0695 24.9908 15.0695 24.9908 15.1526C24.6587 16.0658 24.2436 16.813 23.8285 17.6433C23.5794 18.0584 23.3304 18.4735 23.0813 18.8056C22.8322 19.1377 22.6662 19.3867 22.5001 19.5528C22.3341 19.7188 22.168 19.8018 22.085 19.9679C22.002 20.0509 21.836 20.1339 21.836 20.0509C21.7529 20.0509 21.6699 20.0509 21.6699 19.9679C21.5869 19.8849 21.5039 19.8018 21.4208 19.7188C21.3378 19.6358 21.3378 19.4698 21.2548 19.3037C21.2548 19.1377 21.2548 18.9716 21.2548 18.8886C21.2548 18.8056 21.2548 18.5565 21.2548 18.3905C21.2548 18.1414 21.2548 17.9753 21.2548 17.8923C21.2548 17.6433 21.2548 17.3112 21.2548 16.9791C21.2548 16.647 21.2548 16.3979 21.2548 16.2319C21.2548 16.0658 21.2548 15.8168 21.2548 15.6507C21.2548 15.4016 21.2548 15.2356 21.2548 15.1526C21.2548 15.0695 21.1718 14.9035 21.1718 14.8205C21.0888 14.7375 21.0057 14.6544 20.9227 14.5714C20.8397 14.4884 20.6736 14.4884 20.5906 14.4054C20.1755 14.3223 19.6774 14.2393 19.0962 14.2393C17.7679 14.2393 16.8546 14.3223 16.5225 14.4884C16.3565 14.5714 16.1904 14.6544 16.1074 14.8205C15.9413 14.9865 15.9413 15.0695 16.0244 15.0695C16.4395 15.1526 16.7716 15.3186 16.9376 15.5677L17.0206 15.7337C17.1037 15.8168 17.1037 15.9828 17.1867 16.2319C17.2697 16.4809 17.2697 16.73 17.2697 17.0621C17.2697 17.5602 17.2697 18.0584 17.2697 18.3905C17.2697 18.8056 17.1867 19.0546 17.1867 19.3037C17.1867 19.5528 17.1037 19.7188 17.0206 19.8019C16.9376 19.9679 16.9376 20.0509 16.8546 20.0509C16.8546 20.0509 16.8546 20.1339 16.7716 20.1339C16.6885 20.1339 16.6055 20.217 16.4395 20.217C16.3565 20.217 16.1904 20.1339 16.1074 20.0509C15.9413 19.9679 15.7753 19.8019 15.6923 19.6358C15.5262 19.4698 15.3602 19.2207 15.1941 18.8886C15.0281 18.5565 14.779 18.2244 14.613 17.7263L14.4469 17.3942C14.3639 17.2281 14.1979 16.8961 14.0318 16.4809C13.8658 16.0658 13.6997 15.7337 13.5337 15.3186C13.4506 15.1526 13.3676 15.0695 13.2846 14.9865H13.2016C13.2016 14.9865 13.1186 14.9035 13.0355 14.9035C12.9525 14.9035 12.8695 14.8205 12.7865 14.8205H9.79764C9.46555 14.8205 9.2995 14.9035 9.21648 14.9865L9.13345 15.0695C9.13345 15.0695 9.13345 15.1526 9.13345 15.2356C9.13345 15.3186 9.13346 15.4016 9.21648 15.5677C9.6316 16.564 10.1297 17.5602 10.6279 18.5565C11.126 19.4698 11.6241 20.3 11.9562 20.8812C12.3714 21.4623 12.7034 22.0435 13.1186 22.5416C13.5337 23.0397 13.7827 23.3718 13.8658 23.5379C14.0318 23.7039 14.1148 23.7869 14.1978 23.87L14.4469 24.119C14.613 24.2851 14.862 24.5342 15.1941 24.7832C15.5262 25.0323 15.9413 25.2814 16.3564 25.5304C16.7716 25.7795 17.2697 25.9456 17.7678 26.1116C18.349 26.2776 18.8471 26.3607 19.3453 26.2776H20.5906C20.8397 26.2776 21.0057 26.1946 21.1718 26.0286L21.2548 25.9455C21.2548 25.8625 21.3378 25.8625 21.3378 25.7795C21.3378 25.6965 21.3378 25.6135 21.3378 25.4474C21.3378 25.1153 21.3378 24.8663 21.4208 24.6172C21.5039 24.3681 21.5039 24.2021 21.5869 24.036C21.6699 23.87 21.7529 23.787 21.836 23.7039C21.919 23.6209 22.002 23.5379 22.002 23.5379H22.085C22.2511 23.4549 22.5001 23.5379 22.6662 23.7039C22.9153 23.87 23.1643 24.119 23.3304 24.3681C23.4964 24.6172 23.7455 24.8663 24.0776 25.1983C24.4097 25.5304 24.6587 25.7795 24.8248 25.8625L25.0739 26.0286C25.2399 26.1116 25.406 26.1946 25.655 26.2776C25.9041 26.3607 26.0701 26.3607 26.2362 26.3607L29.059 26.2776C29.308 26.2776 29.5571 26.1946 29.7231 26.1116C29.8892 26.0286 29.9722 25.9455 29.9722 25.7795C29.9722 25.6965 29.9722 25.5304 29.9722 25.4474C29.8062 25.2814 29.8062 25.1983 29.8062 25.1153Z" fill="black"/>
<circle cx="20" cy="20" r="19.5" stroke="#488AEA"/>
</svg>
